<?xml version="1.0" encoding="UTF-8" standalone="no"?>
<!DOCTYPE svg PUBLIC "-//W3C//DTD SVG 1.1//EN"
 "http://www.w3.org/Graphics/SVG/1.1/DTD/svg11.dtd">
<!-- Generated by graphviz version 2.38.0 (20140413.2041)
 -->
<!-- Title: Client Pages: 1 -->
<svg width="360pt" height="332pt"
 viewBox="0.00 0.00 359.63 332.00" xmlns="http://www.w3.org/2000/svg" xmlns:xlink="http://www.w3.org/1999/xlink">
<g id="graph0" class="graph" transform="scale(1 1) rotate(0) translate(4 328)">
<title>Client</title>
<polygon fill="white" stroke="none" points="-4,4 -4,-328 355.633,-328 355.633,4 -4,4"/>
<!-- Initial -->
<g id="node1" class="node"><title>Initial</title>
<ellipse fill="none" stroke="black" cx="120.888" cy="-306" rx="31.6951" ry="18"/>
<text text-anchor="middle" x="120.888" y="-302.3" font-family="Times,serif" font-size="14.00">Initial</text>
</g>
<!-- ReadHeaders -->
<g id="node2" class="node"><title>ReadHeaders</title>
<ellipse fill="none" stroke="black" cx="120.888" cy="-234" rx="57.6901" ry="18"/>
<text text-anchor="middle" x="120.888" y="-230.3" font-family="Times,serif" font-size="14.00">ReadHeaders</text>
</g>
<!-- Initial&#45;&gt;ReadHeaders -->
<g id="edge1" class="edge"><title>Initial&#45;&gt;ReadHeaders</title>
<path fill="none" stroke="black" d="M120.888,-287.697C120.888,-279.983 120.888,-270.712 120.888,-262.112"/>
<polygon fill="black" stroke="black" points="124.388,-262.104 120.888,-252.104 117.388,-262.104 124.388,-262.104"/>
</g>
<!-- Parsed -->
<g id="node3" class="node"><title>Parsed</title>
<ellipse fill="none" stroke="black" cx="154.888" cy="-18" rx="34.394" ry="18"/>
<text text-anchor="middle" x="154.888" y="-14.3" font-family="Times,serif" font-size="14.00">Parsed</text>
</g>
<!-- ReadHeaders&#45;&gt;Parsed -->
<g id="edge2" class="edge"><title>ReadHeaders&#45;&gt;Parsed</title>
<path fill="none" stroke="black" d="M73.0059,-223.749C48.4696,-216.321 20.7042,-203.143 5.88762,-180 -2.73935,-166.525 -0.875008,-158.501 5.88762,-144 29.5345,-93.2959 84.9899,-55.8623 121.172,-35.7617"/>
<polygon fill="black" stroke="black" points="123.239,-38.6234 130.374,-30.7912 119.912,-32.4645 123.239,-38.6234"/>
</g>
<!-- ReadFixedSize -->
<g id="node5" class="node"><title>ReadFixedSize</title>
<ellipse fill="none" stroke="black" cx="78.8876" cy="-162" rx="63.8893" ry="18"/>
<text text-anchor="middle" x="78.8876" y="-158.3" font-family="Times,serif" font-size="14.00">ReadFixedSize</text>
</g>
<!-- ReadHeaders&#45;&gt;ReadFixedSize -->
<g id="edge5" class="edge"><title>ReadHeaders&#45;&gt;ReadFixedSize</title>
<path fill="none" stroke="black" d="M110.721,-216.055C105.768,-207.801 99.7085,-197.701 94.2103,-188.538"/>
<polygon fill="black" stroke="black" points="97.1073,-186.563 88.961,-179.789 91.1048,-190.165 97.1073,-186.563"/>
</g>
<!-- ReadChunked -->
<g id="node6" class="node"><title>ReadChunked</title>
<ellipse fill="none" stroke="black" cx="238.888" cy="-162" rx="60.3893" ry="18"/>
<text text-anchor="middle" x="238.888" y="-158.3" font-family="Times,serif" font-size="14.00">ReadChunked</text>
</g>
<!-- ReadHeaders&#45;&gt;ReadChunked -->
<g id="edge8" class="edge"><title>ReadHeaders&#45;&gt;ReadChunked</title>
<path fill="none" stroke="black" d="M146.492,-217.811C163.385,-207.79 185.723,-194.538 204.204,-183.575"/>
<polygon fill="black" stroke="black" points="206.111,-186.513 212.926,-178.401 202.54,-180.493 206.111,-186.513"/>
</g>
<!-- KeepAlive -->
<g id="node4" class="node"><title>KeepAlive</title>
<ellipse fill="none" stroke="black" cx="302.888" cy="-306" rx="48.9926" ry="18"/>
<text text-anchor="middle" x="302.888" y="-302.3" font-family="Times,serif" font-size="14.00">KeepAlive</text>
</g>
<!-- Parsed&#45;&gt;KeepAlive -->
<g id="edge3" class="edge"><title>Parsed&#45;&gt;KeepAlive</title>
<path fill="none" stroke="black" d="M188.597,-22.2773C222.286,-27.3205 273.345,-40.0448 303.888,-72 357.38,-127.967 330.331,-230.478 313.27,-278.66"/>
<polygon fill="black" stroke="black" points="309.972,-277.486 309.813,-288.08 316.544,-279.898 309.972,-277.486"/>
</g>
<!-- KeepAlive&#45;&gt;ReadHeaders -->
<g id="edge4" class="edge"><title>KeepAlive&#45;&gt;ReadHeaders</title>
<path fill="none" stroke="black" d="M270.35,-292.485C241.162,-281.259 198.059,-264.681 165.631,-252.209"/>
<polygon fill="black" stroke="black" points="166.527,-248.804 155.937,-248.481 164.014,-255.337 166.527,-248.804"/>
</g>
<!-- ReadFixedSize&#45;&gt;Parsed -->
<g id="edge7" class="edge"><title>ReadFixedSize&#45;&gt;Parsed</title>
<path fill="none" stroke="black" d="M87.9043,-144.153C101.046,-119.6 125.573,-73.7727 141.021,-44.9083"/>
<polygon fill="black" stroke="black" points="144.25,-46.2932 145.883,-35.825 138.078,-42.99 144.25,-46.2932"/>
</g>
<!-- ReadFixedSize&#45;&gt;ReadFixedSize -->
<g id="edge6" class="edge"><title>ReadFixedSize&#45;&gt;ReadFixedSize</title>
<path fill="none" stroke="black" d="M122.593,-175.233C142.868,-176.677 160.582,-172.266 160.582,-162 160.582,-153.499 148.434,-149.013 132.743,-148.541"/>
<polygon fill="black" stroke="black" points="132.513,-145.046 122.593,-148.767 132.668,-152.044 132.513,-145.046"/>
</g>
<!-- ReadChunked&#45;&gt;Parsed -->
<g id="edge10" class="edge"><title>ReadChunked&#45;&gt;Parsed</title>
<path fill="none" stroke="black" d="M212.701,-145.769C199.098,-136.531 183.378,-123.53 173.888,-108 162.524,-89.4049 157.89,-65.0114 156.033,-46.4657"/>
<polygon fill="black" stroke="black" points="159.507,-46.0033 155.23,-36.3101 152.529,-46.5548 159.507,-46.0033"/>
</g>
<!-- ReadChunked&#45;&gt;ReadChunked -->
<g id="edge9" class="edge"><title>ReadChunked&#45;&gt;ReadChunked</title>
<path fill="none" stroke="black" d="M280.454,-175.203C300.089,-176.737 317.332,-172.336 317.332,-162 317.332,-153.521 305.729,-149.036 290.721,-148.545"/>
<polygon fill="black" stroke="black" points="290.365,-145.053 280.454,-148.797 290.537,-152.051 290.365,-145.053"/>
</g>
<!-- ReadTrailers -->
<g id="node7" class="node"><title>ReadTrailers</title>
<ellipse fill="none" stroke="black" cx="238.888" cy="-90" rx="55.7903" ry="18"/>
<text text-anchor="middle" x="238.888" y="-86.3" font-family="Times,serif" font-size="14.00">ReadTrailers</text>
</g>
<!-- ReadChunked&#45;&gt;ReadTrailers -->
<g id="edge11" class="edge"><title>ReadChunked&#45;&gt;ReadTrailers</title>
<path fill="none" stroke="black" d="M238.888,-143.697C238.888,-135.983 238.888,-126.712 238.888,-118.112"/>
<polygon fill="black" stroke="black" points="242.388,-118.104 238.888,-108.104 235.388,-118.104 242.388,-118.104"/>
</g>
<!-- ReadTrailers&#45;&gt;Parsed -->
<g id="edge12" class="edge"><title>ReadTrailers&#45;&gt;Parsed</title>
<path fill="none" stroke="black" d="M219.405,-72.7646C207.796,-63.0904 192.928,-50.7007 180.392,-40.2536"/>
<polygon fill="black" stroke="black" points="182.471,-37.4301 172.548,-33.717 177.99,-42.8076 182.471,-37.4301"/>
</g>
</g>
</svg>
